<?xml version="1.0" encoding="UTF-8" standalone="no"?>
<!DOCTYPE svg PUBLIC "-//W3C//DTD SVG 1.1//EN" "http://www.w3.org/Graphics/SVG/1.1/DTD/svg11.dtd">
<svg xmlns="http://www.w3.org/2000/svg" version="1.1" viewBox="0.00 0.00 1282.00 652.00">
<g stroke-width="2.00" fill="none" stroke-linecap="butt">
<path stroke="#808080" vector-effect="non-scaling-stroke" d="
  M 1282.00 651.00
  L 0.00 651.00"
/>
<path stroke="#808080" vector-effect="non-scaling-stroke" d="
  M 309.83 131.92
  L 309.52 127.10
  A 2.53 2.52 -25.0 0 0 305.18 125.52
  C 302.88 127.92 300.77 130.48 300.75 134.05
  C 300.74 137.28 300.87 139.66 300.13 143.15
  C 299.22 147.42 300.76 150.21 300.75 154.14
  C 300.74 157.41 300.25 160.38 301.89 163.26
  Q 304.20 167.30 308.11 169.97
  Q 308.52 170.25 308.74 170.70
  Q 312.09 177.60 319.17 179.69
  C 329.09 182.62 335.42 185.35 345.31 183.58
  Q 356.78 181.52 366.99 178.42
  C 371.66 177.01 375.83 174.34 380.10 171.93
  C 401.04 160.09 416.32 166.44 420.16 190.32
  Q 421.41 198.08 423.86 205.71
  A 0.41 0.40 56.9 0 0 424.55 205.86
  Q 429.39 200.37 431.90 193.53
  C 433.89 188.12 437.18 183.96 440.36 179.38
  Q 440.64 178.96 440.65 178.46
  C 440.79 170.60 444.00 165.33 441.31 157.38
  C 440.50 154.98 441.45 153.36 439.46 151.29
  C 431.80 143.31 421.17 145.04 412.21 149.70
  A 0.83 0.82 -26.3 0 1 411.08 149.33
  C 409.50 145.99 408.18 141.65 405.95 139.11
  C 402.74 135.49 397.79 133.19 393.41 131.37
  C 384.00 127.47 377.08 125.63 367.25 129.25
  C 361.46 131.39 354.87 134.70 348.67 134.87
  C 339.82 135.12 331.73 136.25 328.91 125.74
  C 327.99 122.32 330.64 116.25 331.57 112.77
  Q 331.68 112.33 331.23 112.28
  Q 327.96 111.94 324.96 113.30
  Q 324.46 113.53 323.92 113.46
  Q 322.48 113.29 321.47 114.71
  C 317.34 120.51 312.00 123.16 310.37 131.95
  A 0.27 0.27 0.0 0 1 309.83 131.92"
/>
<path stroke="#626262" vector-effect="non-scaling-stroke" d="
  M 281.04 240.98
  C 299.75 192.62 258.39 151.38 210.25 162.77
  C 153.18 176.28 150.84 257.32 207.47 273.59
  C 236.57 281.96 269.70 270.29 281.04 240.98"
/>
<path stroke="#626262" vector-effect="non-scaling-stroke" d="
  M 454.00 223.72
  C 458.09 287.98 554.37 295.27 570.75 234.26
  C 577.13 210.49 569.39 185.00 548.96 171.36
  C 529.07 158.08 501.08 157.36 480.59 169.74
  C 461.89 181.04 452.57 201.34 454.00 223.72"
/>
<path stroke="#626262" vector-effect="non-scaling-stroke" d="
  M 1094.22 225.79
  C 1100.45 289.92 1197.84 294.03 1211.45 231.43
  C 1221.41 185.57 1181.17 152.21 1137.98 162.69
  C 1107.94 169.98 1091.28 195.54 1094.22 225.79"
/>
<path stroke="#626262" vector-effect="non-scaling-stroke" d="
  M 769.82 267.42
  C 764.78 266.84 752.39 265.94 754.27 258.05
  Q 756.09 250.40 761.42 237.77
  Q 761.65 237.23 762.23 237.23
  L 799.15 237.29
  Q 799.61 237.29 799.78 237.71
  Q 804.52 249.17 809.14 260.66
  Q 809.92 262.62 809.06 264.15
  A 0.95 0.94 -81.3 0 1 808.43 264.62
  L 794.14 267.67
  Q 793.75 267.75 793.75 268.15
  L 793.75 272.75
  Q 793.75 273.50 794.50 273.50
  L 853.25 273.50
  Q 854.00 273.50 854.00 272.75
  L 854.00 267.76
  A 0.51 0.50 1.2 0 0 853.51 267.26
  C 841.65 266.78 838.09 260.42 833.71 249.64
  Q 816.27 206.82 798.74 164.02
  Q 798.53 163.50 797.96 163.50
  L 783.47 163.50
  A 0.80 0.80 0.0 0 0 782.73 164.00
  Q 763.77 209.06 744.91 254.18
  Q 739.67 266.73 725.59 267.16
  A 0.61 0.61 0.0 0 0 725.00 267.77
  L 725.00 273.00
  Q 725.00 273.50 725.50 273.50
  L 769.75 273.50
  Q 770.50 273.50 770.50 272.75
  L 770.50 268.18
  Q 770.50 267.50 769.82 267.42"
/>
<path stroke="#626262" vector-effect="non-scaling-stroke" d="
  M 92.89 257.17
  C 107.95 241.87 83.02 224.21 71.21 238.42
  Q 66.65 243.91 67.25 252.42
  C 68.03 263.53 76.58 271.83 87.24 274.51
  C 107.46 279.62 133.50 271.88 140.00 250.14
  Q 141.52 245.04 141.50 231.20
  Q 141.47 205.01 141.55 178.81
  C 141.57 170.81 150.27 170.46 156.23 169.55
  Q 156.75 169.47 156.75 168.94
  L 156.75 164.25
  Q 156.75 163.50 156.00 163.50
  L 98.00 163.50
  Q 97.50 163.50 97.50 164.00
  L 97.50 168.75
  Q 97.50 169.37 98.10 169.52
  C 103.19 170.78 108.92 171.39 112.86 175.18
  A 1.62 1.54 -75.2 0 1 113.32 176.02
  Q 114.07 179.86 114.03 182.50
  Q 113.65 213.23 113.74 243.95
  C 113.77 255.19 109.27 266.19 97.03 268.29
  Q 90.46 269.42 85.90 265.13
  A 0.62 0.62 0.0 0 1 85.88 264.25
  Q 88.21 261.92 92.89 257.17"
/>
<path stroke="#626262" vector-effect="non-scaling-stroke" d="
  M 683.42 267.54
  C 676.91 266.35 667.80 265.91 667.52 257.95
  Q 666.97 242.43 667.35 226.85
  Q 667.36 226.33 667.87 226.30
  C 670.87 226.12 673.64 225.88 676.86 225.98
  C 698.29 226.59 724.65 219.01 726.64 193.98
  C 728.52 170.22 707.73 163.73 688.24 163.55
  Q 673.88 163.41 623.99 163.53
  Q 623.50 163.53 623.50 164.02
  L 623.50 168.98
  Q 623.50 169.46 623.96 169.57
  C 630.78 171.14 639.84 171.33 639.82 180.75
  Q 639.77 219.71 639.73 258.69
  C 639.72 266.49 629.89 266.74 623.88 267.35
  A 0.55 0.55 0.0 0 0 623.38 267.91
  L 623.55 272.91
  Q 623.57 273.50 624.16 273.50
  L 682.84 273.50
  Q 683.49 273.50 683.49 272.85
  L 683.49 267.63
  Q 683.49 267.55 683.42 267.54"
/>
<path stroke="#626262" vector-effect="non-scaling-stroke" d="
  M 919.93 265.89
  C 901.16 263.99 896.57 249.56 896.53 233.25
  Q 896.46 207.44 896.53 181.64
  C 896.55 176.16 896.95 173.04 902.42 171.44
  Q 907.80 169.87 911.27 169.58
  Q 911.75 169.53 911.75 169.05
  L 911.75 164.25
  A 0.75 0.75 0.0 0 0 911.00 163.50
  L 854.50 163.50
  A 0.75 0.75 0.0 0 0 853.75 164.25
  L 853.75 168.76
  Q 853.75 169.33 854.31 169.45
  C 861.28 170.94 868.90 171.74 868.77 181.74
  Q 868.58 196.21 868.84 238.31
  C 868.97 257.59 883.15 270.53 901.18 274.31
  C 932.74 280.93 963.12 269.60 963.02 232.75
  Q 962.96 211.97 963.03 191.19
  C 963.07 181.80 964.39 172.10 975.27 171.01
  Q 978.14 170.72 980.02 169.86
  Q 980.62 169.58 980.64 168.92
  L 980.80 164.29
  Q 980.82 163.50 980.04 163.50
  L 934.38 163.50
  A 0.61 0.60 89.5 0 0 933.78 164.12
  L 933.86 169.10
  Q 933.86 169.55 934.30 169.69
  C 938.31 170.95 943.71 171.99 946.73 173.90
  C 952.90 177.81 953.51 187.58 953.51 194.25
  Q 953.54 215.09 953.22 235.93
  C 952.90 256.48 940.20 267.93 919.93 265.89"
/>
<path stroke="#626262" vector-effect="non-scaling-stroke" d="
  M 1039.31 265.95
  C 1029.85 265.59 1028.84 259.89 1028.74 251.52
  Q 1028.33 216.29 1028.80 181.07
  C 1028.86 176.58 1029.16 172.54 1034.19 171.33
  Q 1039.45 170.06 1044.88 169.65
  Q 1045.50 169.61 1045.50 168.98
  L 1045.50 164.13
  Q 1045.50 163.50 1044.87 163.50
  L 985.37 163.50
  Q 984.74 163.50 984.73 164.13
  L 984.64 169.36
  A 0.38 0.37 -86.8 0 0 984.98 169.75
  C 990.93 170.33 1000.97 172.02 1000.98 179.75
  Q 1001.03 218.25 1000.98 256.75
  C 1000.97 266.58 993.21 266.63 985.37 267.27
  Q 984.75 267.32 984.75 267.94
  L 984.75 272.87
  Q 984.75 273.50 985.38 273.50
  L 1085.73 273.50
  Q 1086.22 273.50 1086.25 273.01
  L 1088.30 239.17
  Q 1088.34 238.50 1087.67 238.50
  L 1083.20 238.50
  Q 1082.59 238.50 1082.35 239.06
  C 1079.50 245.53 1075.61 252.71 1071.34 258.35
  C 1067.73 263.13 1064.11 264.95 1057.80 265.50
  Q 1048.55 266.30 1039.31 265.95"
/>
<path stroke="#808080" vector-effect="non-scaling-stroke" d="
  M 317.73 278.36
  Q 320.59 278.78 320.76 281.87
  A 1.13 1.13 0.0 0 0 321.15 282.68
  L 327.59 288.36
  A 0.91 0.89 -27.7 0 0 328.32 288.58
  Q 331.11 288.20 332.14 290.49
  Q 332.38 291.04 332.90 291.34
  C 339.80 295.32 346.37 297.98 354.62 298.47
  Q 364.88 299.08 375.14 298.57
  C 384.05 298.12 391.28 295.01 398.54 290.36
  Q 400.09 289.37 402.22 288.59
  C 406.86 286.88 409.50 281.94 412.87 277.92
  Q 417.93 271.89 419.94 264.43
  C 421.74 257.71 425.70 237.56 421.80 231.47
  A 0.45 0.45 0.0 0 0 421.00 231.56
  C 417.80 240.77 415.21 252.38 404.72 256.66
  C 396.21 260.14 390.91 257.52 383.94 253.06
  C 378.00 249.26 373.95 251.62 368.13 254.07
  C 362.02 256.65 359.61 251.09 354.47 251.05
  C 348.33 250.99 343.26 254.85 337.94 257.43
  C 333.07 259.80 326.53 256.60 322.88 255.60
  Q 322.43 255.48 322.11 255.14
  C 315.41 248.00 312.18 244.09 310.35 234.19
  Q 310.00 232.32 308.13 231.35
  Q 307.61 231.08 307.53 231.66
  C 305.68 246.25 307.90 266.34 316.75 277.78
  A 1.51 1.50 -14.2 0 0 317.73 278.36"
/>
<path stroke="#808080" vector-effect="non-scaling-stroke" d="
  M 351.87 333.22
  C 349.90 330.09 341.09 326.13 337.97 324.30
  Q 332.00 320.80 332.00 327.73
  L 332.00 353.74
  Q 332.00 354.23 332.46 354.37
  Q 338.00 356.09 341.98 352.80
  C 346.54 349.04 351.64 345.94 356.51 343.76
  Q 359.58 342.39 360.75 345.47
  A 0.84 0.81 78.7 0 0 361.53 346.01
  L 368.76 345.97
  Q 369.39 345.97 369.70 345.42
  Q 371.61 342.10 375.27 344.03
  Q 382.64 347.91 389.04 353.21
  Q 392.38 355.98 397.62 354.45
  Q 398.05 354.32 398.20 353.89
  Q 398.67 352.42 398.81 350.57
  Q 399.64 339.61 398.92 329.41
  C 398.67 325.94 397.73 322.02 393.22 323.94
  Q 386.82 326.67 378.89 333.29
  A 1.18 1.15 28.7 0 1 377.99 333.54
  Q 375.36 333.16 373.32 334.78
  Q 372.89 335.13 372.46 334.78
  Q 365.51 329.20 358.24 334.34
  A 0.90 0.88 -46.3 0 1 357.27 334.37
  Q 355.15 333.06 352.63 333.55
  A 0.73 0.72 -21.1 0 1 351.87 333.22"
/>
<path stroke="#574036" vector-effect="non-scaling-stroke" d="
  M 1208.25 330.16
  A 2.91 2.91 0.0 0 0 1205.34 327.25
  L 452.40 327.25
  A 2.91 2.91 0.0 0 0 449.49 330.16
  L 449.49 330.60
  A 2.91 2.91 0.0 0 0 452.40 333.51
  L 1205.34 333.51
  A 2.91 2.91 0.0 0 0 1208.25 330.60
  L 1208.25 330.16"
/>
<path stroke="#574036" vector-effect="non-scaling-stroke" d="
  M 284.48 335.14
  A 2.88 2.88 0.0 0 0 281.60 332.26
  L 76.14 332.26
  A 2.88 2.88 0.0 0 0 73.26 335.14
  L 73.26 335.62
  A 2.88 2.88 0.0 0 0 76.14 338.50
  L 281.60 338.50
  A 2.88 2.88 0.0 0 0 284.48 335.62
  L 284.48 335.14"
/>
<path stroke="#5c3e2c" vector-effect="non-scaling-stroke" d="
  M 838.49 467.67
  Q 838.48 467.18 838.64 466.54
  Q 842.46 451.18 844.66 435.48
  C 846.34 423.52 830.96 420.80 827.74 432.74
  Q 826.19 438.50 825.43 444.39
  Q 825.37 444.90 824.99 445.25
  C 816.09 453.61 807.90 462.68 797.42 469.16
  C 789.56 474.03 775.91 479.09 772.36 466.99
  C 768.90 455.21 778.64 441.02 774.55 431.26
  C 772.53 426.46 770.52 422.96 765.34 421.68
  C 755.42 419.23 747.74 420.45 738.75 425.77
  Q 728.15 432.04 720.15 441.42
  C 709.30 454.14 694.23 469.31 679.72 476.96
  C 670.36 481.89 645.44 491.93 640.51 475.71
  Q 640.37 475.24 640.65 474.84
  Q 641.67 473.41 642.27 473.01
  C 653.88 465.25 668.90 453.35 674.70 440.43
  C 679.58 429.56 675.83 412.57 661.44 411.79
  C 645.78 410.93 634.12 426.85 628.27 439.16
  A 1.94 1.91 -4.0 0 1 627.60 439.92
  L 592.50 462.24
  A 0.32 0.31 -89.5 0 1 592.07 461.80
  C 599.65 450.21 595.19 435.57 584.66 427.71
  C 564.45 412.61 541.53 439.23 533.24 454.82
  A 0.29 0.29 0.0 0 1 532.69 454.66
  Q 535.59 420.90 543.66 388.66
  C 547.01 375.31 530.51 368.97 525.91 382.22
  C 522.21 392.93 521.32 402.01 519.26 417.02
  Q 514.25 453.45 513.75 490.25
  Q 513.73 492.06 513.87 493.89
  C 514.78 505.68 526.72 504.65 530.85 495.84
  Q 531.63 494.16 532.26 488.47
  C 533.83 474.31 543.98 461.72 553.21 451.46
  C 556.26 448.09 571.03 433.45 575.10 441.66
  C 584.64 460.88 568.68 474.90 554.44 484.43
  C 549.95 487.43 515.92 508.38 535.63 512.61
  C 552.80 516.29 563.17 496.11 575.81 488.58
  C 591.15 479.43 605.28 471.95 621.77 461.21
  Q 622.35 460.83 622.29 461.52
  C 620.61 481.04 624.70 498.78 647.49 501.10
  C 667.73 503.15 688.12 488.68 702.74 475.49
  Q 703.33 474.96 703.27 475.75
  C 703.06 478.42 702.66 481.29 702.80 483.59
  C 703.34 492.45 709.29 505.03 720.00 503.51
  C 736.14 501.23 749.52 489.13 759.05 476.67
  Q 759.36 476.26 759.54 476.74
  Q 765.20 492.11 779.24 491.76
  C 795.64 491.35 811.20 477.23 822.05 466.07
  A 0.44 0.44 0.0 0 1 822.80 466.42
  C 821.56 477.52 820.09 490.16 822.50 501.23
  C 824.71 511.44 838.42 509.41 840.26 500.53
  C 845.63 474.59 862.41 443.52 893.40 445.86
  C 896.04 446.05 897.45 445.37 898.74 443.22
  C 902.45 437.07 898.73 433.56 893.22 431.23
  C 868.13 420.67 847.51 448.71 839.03 467.77
  A 0.28 0.28 0.0 0 1 838.49 467.67"
/>
<path stroke="#5c3e2c" vector-effect="non-scaling-stroke" d="
  M 920.69 396.06
  C 925.28 398.75 933.33 399.68 937.98 396.76
  C 943.14 393.50 947.26 380.72 939.82 377.65
  Q 930.53 373.81 923.76 380.97
  C 921.02 383.87 914.89 392.68 920.69 396.06"
/>
<path stroke="#5c3e2c" vector-effect="non-scaling-stroke" d="
  M 271.71 432.63
  A 0.47 0.47 0.0 0 1 271.55 431.82
  C 278.46 426.16 287.18 417.84 289.29 409.62
  C 291.49 401.08 288.06 392.51 280.86 387.36
  C 263.56 374.99 235.50 386.83 217.62 392.74
  C 214.76 393.68 209.06 394.27 207.05 395.54
  C 196.51 402.22 200.96 414.73 200.06 424.31
  Q 197.48 451.73 193.68 479.00
  C 192.50 487.49 192.39 502.64 205.89 500.69
  C 213.90 499.54 215.69 492.02 215.55 485.00
  C 215.35 475.18 215.73 467.41 216.99 456.63
  Q 219.29 436.97 219.44 417.15
  C 219.53 404.66 275.21 392.48 271.49 407.85
  C 270.02 413.92 255.76 423.77 249.64 427.65
  C 245.82 430.08 241.75 428.84 238.19 429.70
  C 226.45 432.52 223.27 450.93 237.39 450.27
  C 240.14 450.15 242.87 448.79 245.55 447.75
  C 255.60 443.87 272.31 445.98 277.55 456.78
  C 282.80 467.61 268.70 482.97 260.77 488.54
  Q 256.81 491.33 250.45 492.43
  C 245.85 493.23 243.15 491.80 238.95 490.05
  C 230.84 486.67 217.88 490.71 220.46 501.78
  C 224.31 518.28 253.41 510.26 263.46 506.34
  C 280.35 499.75 298.36 478.57 298.14 459.74
  C 297.99 446.23 283.13 436.22 271.71 432.63"
/>
<path stroke="#5c3e2c" vector-effect="non-scaling-stroke" d="
  M 444.39 466.45
  Q 442.18 471.36 443.44 466.13
  C 445.96 455.68 449.09 443.92 449.41 432.99
  C 449.56 428.25 444.93 424.57 440.52 424.98
  C 431.91 425.76 430.99 438.07 430.17 444.40
  A 1.47 1.44 72.6 0 1 429.73 445.26
  C 417.95 456.31 405.59 471.36 388.77 474.25
  C 377.27 476.22 374.80 463.40 376.74 455.07
  C 377.82 450.42 378.74 445.73 379.89 441.08
  C 381.39 435.04 379.66 430.72 376.23 425.55
  C 372.61 420.08 361.30 420.10 355.96 420.92
  Q 350.02 421.84 342.77 426.18
  C 325.94 436.28 314.41 453.42 308.91 472.17
  Q 305.51 483.74 309.80 493.17
  C 312.64 499.43 317.98 504.51 324.76 503.50
  C 340.68 501.13 354.34 489.36 363.72 476.64
  Q 364.06 476.17 364.26 476.72
  Q 369.87 491.89 383.63 491.77
  C 400.96 491.61 414.96 477.06 427.12 466.20
  Q 427.69 465.69 427.59 466.44
  Q 425.71 481.74 426.14 494.75
  C 426.31 500.14 428.01 508.00 434.98 507.95
  C 439.75 507.91 443.73 505.89 444.77 500.98
  C 450.01 476.28 466.66 443.65 496.91 445.83
  C 499.98 446.05 501.98 445.85 503.54 443.25
  C 507.22 437.13 503.48 433.57 498.00 431.24
  C 473.48 420.80 452.64 448.07 444.39 466.45"
/>
<path stroke="#5c3e2c" vector-effect="non-scaling-stroke" d="
  M 974.97 480.39
  C 974.69 489.95 980.09 505.07 992.25 503.51
  C 1007.94 501.51 1022.01 489.04 1031.20 476.67
  Q 1031.53 476.23 1031.73 476.74
  C 1040.87 500.59 1064.20 491.60 1078.81 480.07
  C 1087.80 472.97 1105.45 459.16 1104.97 447.09
  C 1104.70 440.22 1097.60 444.70 1094.77 447.52
  C 1084.30 457.95 1070.98 472.54 1055.43 474.44
  C 1038.28 476.52 1045.03 449.88 1047.16 441.94
  C 1049.05 434.93 1046.27 423.84 1037.76 421.76
  C 1020.73 417.59 1007.53 425.78 995.98 437.48
  C 991.41 442.11 985.95 450.02 980.78 455.31
  C 974.96 461.25 939.07 496.54 931.29 483.93
  C 924.00 472.09 928.54 450.13 930.48 437.13
  C 931.26 431.89 931.08 424.71 923.59 426.35
  Q 912.02 428.89 909.86 440.46
  C 906.85 456.66 905.03 485.89 918.38 498.71
  C 936.79 516.40 961.86 493.00 974.63 480.24
  A 0.20 0.20 0.0 0 1 974.97 480.39"
/>
<path stroke="#626262" vector-effect="non-scaling-stroke" d="
  M 239.78 173.23
  Q 235.43 169.80 233.24 169.36
  C 212.64 165.22 202.85 178.90 199.47 196.99
  C 196.16 214.78 195.39 247.00 208.91 261.31
  C 216.97 269.84 229.99 270.79 239.07 264.46
  C 256.96 251.98 255.52 214.17 252.18 196.26
  C 250.54 187.50 246.96 178.89 239.78 173.23"
/>
<path stroke="#626262" vector-effect="non-scaling-stroke" d="
  M 498.96 263.54
  C 508.43 271.69 522.82 269.31 530.31 261.23
  C 543.88 246.59 542.98 214.61 539.91 196.73
  C 537.75 184.16 529.85 169.42 515.46 168.64
  C 494.73 167.51 487.81 186.69 485.89 203.82
  C 483.88 221.74 483.82 250.51 498.96 263.54"
/>
<path stroke="#626262" vector-effect="non-scaling-stroke" d="
  M 1138.98 263.51
  Q 1143.37 267.28 1146.75 267.86
  C 1172.50 272.27 1179.78 249.21 1181.24 229.01
  C 1182.60 210.30 1181.82 169.26 1154.35 168.51
  C 1123.36 167.67 1123.57 214.92 1125.87 233.82
  C 1127.16 244.49 1130.39 256.15 1138.98 263.51"
/>
<path stroke="#626262" vector-effect="non-scaling-stroke" d="
  M 764.96 229.23
  A 0.38 0.38 0.0 0 0 765.32 229.75
  L 795.66 229.75
  A 0.38 0.38 0.0 0 0 796.02 229.23
  L 780.84 191.50
  A 0.38 0.38 0.0 0 0 780.14 191.50
  L 764.96 229.23"
/>
<path stroke="#626262" vector-effect="non-scaling-stroke" d="
  M 667.54 171.02
  L 667.46 217.92
  A 0.23 0.23 0.0 0 0 667.69 218.16
  L 675.91 218.17
  A 20.29 20.08 0.1 0 0 696.23 198.13
  L 696.25 190.93
  A 20.29 20.08 0.1 0 0 675.99 170.81
  L 667.77 170.80
  A 0.23 0.23 0.0 0 0 667.54 171.02"
/>
<path stroke="#808080" vector-effect="non-scaling-stroke" d="
  M 343.19 267.31
  Q 348.14 271.60 354.21 270.55
  Q 365.13 268.65 375.97 270.58
  C 386.33 272.42 397.24 258.53 380.37 258.51
  Q 363.97 258.48 347.56 258.53
  C 342.58 258.54 337.98 262.80 343.19 267.31"
/>
<path stroke="#5c3e2c" vector-effect="non-scaling-stroke" d="
  M 658.95 427.19
  C 655.09 426.73 649.30 433.65 647.57 436.58
  Q 641.36 447.08 639.66 459.22
  Q 639.59 459.68 639.99 459.43
  C 650.03 453.04 662.77 441.90 660.68 428.85
  Q 660.44 427.37 658.95 427.19"
/>
<path stroke="#5c3e2c" vector-effect="non-scaling-stroke" d="
  M 721.89 487.17
  C 724.41 487.31 726.83 486.92 729.17 485.61
  C 744.79 476.92 757.51 459.74 758.77 442.00
  Q 759.04 438.15 756.60 435.42
  A 1.28 1.28 0.0 0 0 755.71 435.01
  C 738.44 434.63 716.82 470.29 719.92 485.47
  A 2.13 2.13 0.0 0 0 721.89 487.17"
/>
<path stroke="#5c3e2c" vector-effect="non-scaling-stroke" d="
  M 326.92 487.34
  C 338.71 486.77 351.63 472.32 357.14 462.10
  C 360.48 455.90 367.10 441.17 361.21 435.32
  Q 360.87 434.99 360.40 435.01
  C 344.58 435.83 331.19 457.62 326.58 471.37
  C 324.75 476.83 323.59 480.64 324.76 485.71
  A 2.11 2.11 0.0 0 0 326.92 487.34"
/>
<path stroke="#5c3e2c" vector-effect="non-scaling-stroke" d="
  M 992.42 485.66
  C 993.90 488.11 998.32 487.33 1000.28 486.28
  Q 1022.70 474.19 1029.97 448.99
  C 1031.06 445.19 1032.16 438.96 1028.82 435.42
  A 1.25 1.24 68.6 0 0 1027.94 435.03
  C 1012.46 434.89 999.03 458.07 994.17 470.72
  C 992.99 473.80 990.48 482.46 992.42 485.66"
/>
</g>
<path fill="#000000" d="
  M 0.00 0.00
  L 1282.00 0.00
  L 1282.00 651.00
  L 0.00 651.00
  L 0.00 0.00
  Z
  M 309.83 131.92
  L 309.52 127.10
  A 2.53 2.52 -25.0 0 0 305.18 125.52
  C 302.88 127.92 300.77 130.48 300.75 134.05
  C 300.74 137.28 300.87 139.66 300.13 143.15
  C 299.22 147.42 300.76 150.21 300.75 154.14
  C 300.74 157.41 300.25 160.38 301.89 163.26
  Q 304.20 167.30 308.11 169.97
  Q 308.52 170.25 308.74 170.70
  Q 312.09 177.60 319.17 179.69
  C 329.09 182.62 335.42 185.35 345.31 183.58
  Q 356.78 181.52 366.99 178.42
  C 371.66 177.01 375.83 174.34 380.10 171.93
  C 401.04 160.09 416.32 166.44 420.16 190.32
  Q 421.41 198.08 423.86 205.71
  A 0.41 0.40 56.9 0 0 424.55 205.86
  Q 429.39 200.37 431.90 193.53
  C 433.89 188.12 437.18 183.96 440.36 179.38
  Q 440.64 178.96 440.65 178.46
  C 440.79 170.60 444.00 165.33 441.31 157.38
  C 440.50 154.98 441.45 153.36 439.46 151.29
  C 431.80 143.31 421.17 145.04 412.21 149.70
  A 0.83 0.82 -26.3 0 1 411.08 149.33
  C 409.50 145.99 408.18 141.65 405.95 139.11
  C 402.74 135.49 397.79 133.19 393.41 131.37
  C 384.00 127.47 377.08 125.63 367.25 129.25
  C 361.46 131.39 354.87 134.70 348.67 134.87
  C 339.82 135.12 331.73 136.25 328.91 125.74
  C 327.99 122.32 330.64 116.25 331.57 112.77
  Q 331.68 112.33 331.23 112.28
  Q 327.96 111.94 324.96 113.30
  Q 324.46 113.53 323.92 113.46
  Q 322.48 113.29 321.47 114.71
  C 317.34 120.51 312.00 123.16 310.37 131.95
  A 0.27 0.27 0.0 0 1 309.83 131.92
  Z
  M 281.04 240.98
  C 299.75 192.62 258.39 151.38 210.25 162.77
  C 153.18 176.28 150.84 257.32 207.47 273.59
  C 236.57 281.96 269.70 270.29 281.04 240.98
  Z
  M 454.00 223.72
  C 458.09 287.98 554.37 295.27 570.75 234.26
  C 577.13 210.49 569.39 185.00 548.96 171.36
  C 529.07 158.08 501.08 157.36 480.59 169.74
  C 461.89 181.04 452.57 201.34 454.00 223.72
  Z
  M 1094.22 225.79
  C 1100.45 289.92 1197.84 294.03 1211.45 231.43
  C 1221.41 185.57 1181.17 152.21 1137.98 162.69
  C 1107.94 169.98 1091.28 195.54 1094.22 225.79
  Z
  M 769.82 267.42
  C 764.78 266.84 752.39 265.94 754.27 258.05
  Q 756.09 250.40 761.42 237.77
  Q 761.65 237.23 762.23 237.23
  L 799.15 237.29
  Q 799.61 237.29 799.78 237.71
  Q 804.52 249.17 809.14 260.66
  Q 809.92 262.62 809.06 264.15
  A 0.95 0.94 -81.3 0 1 808.43 264.62
  L 794.14 267.67
  Q 793.75 267.75 793.75 268.15
  L 793.75 272.75
  Q 793.75 273.50 794.50 273.50
  L 853.25 273.50
  Q 854.00 273.50 854.00 272.75
  L 854.00 267.76
  A 0.51 0.50 1.2 0 0 853.51 267.26
  C 841.65 266.78 838.09 260.42 833.71 249.64
  Q 816.27 206.82 798.74 164.02
  Q 798.53 163.50 797.96 163.50
  L 783.47 163.50
  A 0.80 0.80 0.0 0 0 782.73 164.00
  Q 763.77 209.06 744.91 254.18
  Q 739.67 266.73 725.59 267.16
  A 0.61 0.61 0.0 0 0 725.00 267.77
  L 725.00 273.00
  Q 725.00 273.50 725.50 273.50
  L 769.75 273.50
  Q 770.50 273.50 770.50 272.75
  L 770.50 268.18
  Q 770.50 267.50 769.82 267.42
  Z
  M 92.89 257.17
  C 107.95 241.87 83.02 224.21 71.21 238.42
  Q 66.65 243.91 67.25 252.42
  C 68.03 263.53 76.58 271.83 87.24 274.51
  C 107.46 279.62 133.50 271.88 140.00 250.14
  Q 141.52 245.04 141.50 231.20
  Q 141.47 205.01 141.55 178.81
  C 141.57 170.81 150.27 170.46 156.23 169.55
  Q 156.75 169.47 156.75 168.94
  L 156.75 164.25
  Q 156.75 163.50 156.00 163.50
  L 98.00 163.50
  Q 97.50 163.50 97.50 164.00
  L 97.50 168.75
  Q 97.50 169.37 98.10 169.52
  C 103.19 170.78 108.92 171.39 112.86 175.18
  A 1.62 1.54 -75.2 0 1 113.32 176.02
  Q 114.07 179.86 114.03 182.50
  Q 113.65 213.23 113.74 243.95
  C 113.77 255.19 109.27 266.19 97.03 268.29
  Q 90.46 269.42 85.90 265.13
  A 0.62 0.62 0.0 0 1 85.88 264.25
  Q 88.21 261.92 92.89 257.17
  Z
  M 683.42 267.54
  C 676.91 266.35 667.80 265.91 667.52 257.95
  Q 666.97 242.43 667.35 226.85
  Q 667.36 226.33 667.87 226.30
  C 670.87 226.12 673.64 225.88 676.86 225.98
  C 698.29 226.59 724.65 219.01 726.64 193.98
  C 728.52 170.22 707.73 163.73 688.24 163.55
  Q 673.88 163.41 623.99 163.53
  Q 623.50 163.53 623.50 164.02
  L 623.50 168.98
  Q 623.50 169.46 623.96 169.57
  C 630.78 171.14 639.84 171.33 639.82 180.75
  Q 639.77 219.71 639.73 258.69
  C 639.72 266.49 629.89 266.74 623.88 267.35
  A 0.55 0.55 0.0 0 0 623.38 267.91
  L 623.55 272.91
  Q 623.57 273.50 624.16 273.50
  L 682.84 273.50
  Q 683.49 273.50 683.49 272.85
  L 683.49 267.63
  Q 683.49 267.55 683.42 267.54
  Z
  M 919.93 265.89
  C 901.16 263.99 896.57 249.56 896.53 233.25
  Q 896.46 207.44 896.53 181.64
  C 896.55 176.16 896.95 173.04 902.42 171.44
  Q 907.80 169.87 911.27 169.58
  Q 911.75 169.53 911.75 169.05
  L 911.75 164.25
  A 0.75 0.75 0.0 0 0 911.00 163.50
  L 854.50 163.50
  A 0.75 0.75 0.0 0 0 853.75 164.25
  L 853.75 168.76
  Q 853.75 169.33 854.31 169.45
  C 861.28 170.94 868.90 171.74 868.77 181.74
  Q 868.58 196.21 868.84 238.31
  C 868.97 257.59 883.15 270.53 901.18 274.31
  C 932.74 280.93 963.12 269.60 963.02 232.75
  Q 962.96 211.97 963.03 191.19
  C 963.07 181.80 964.39 172.10 975.27 171.01
  Q 978.14 170.72 980.02 169.86
  Q 980.62 169.58 980.64 168.92
  L 980.80 164.29
  Q 980.82 163.50 980.04 163.50
  L 934.38 163.50
  A 0.61 0.60 89.5 0 0 933.78 164.12
  L 933.86 169.10
  Q 933.86 169.55 934.30 169.69
  C 938.31 170.95 943.71 171.99 946.73 173.90
  C 952.90 177.81 953.51 187.58 953.51 194.25
  Q 953.54 215.09 953.22 235.93
  C 952.90 256.48 940.20 267.93 919.93 265.89
  Z
  M 1039.31 265.95
  C 1029.85 265.59 1028.84 259.89 1028.74 251.52
  Q 1028.33 216.29 1028.80 181.07
  C 1028.86 176.58 1029.16 172.54 1034.19 171.33
  Q 1039.45 170.06 1044.88 169.65
  Q 1045.50 169.61 1045.50 168.98
  L 1045.50 164.13
  Q 1045.50 163.50 1044.87 163.50
  L 985.37 163.50
  Q 984.74 163.50 984.73 164.13
  L 984.64 169.36
  A 0.38 0.37 -86.8 0 0 984.98 169.75
  C 990.93 170.33 1000.97 172.02 1000.98 179.75
  Q 1001.03 218.25 1000.98 256.75
  C 1000.97 266.58 993.21 266.63 985.37 267.27
  Q 984.75 267.32 984.75 267.94
  L 984.75 272.87
  Q 984.75 273.50 985.38 273.50
  L 1085.73 273.50
  Q 1086.22 273.50 1086.25 273.01
  L 1088.30 239.17
  Q 1088.34 238.50 1087.67 238.50
  L 1083.20 238.50
  Q 1082.59 238.50 1082.35 239.06
  C 1079.50 245.53 1075.61 252.71 1071.34 258.35
  C 1067.73 263.13 1064.11 264.95 1057.80 265.50
  Q 1048.55 266.30 1039.31 265.95
  Z
  M 317.73 278.36
  Q 320.59 278.78 320.76 281.87
  A 1.13 1.13 0.0 0 0 321.15 282.68
  L 327.59 288.36
  A 0.91 0.89 -27.7 0 0 328.32 288.58
  Q 331.11 288.20 332.14 290.49
  Q 332.38 291.04 332.90 291.34
  C 339.80 295.32 346.37 297.98 354.62 298.47
  Q 364.88 299.08 375.14 298.57
  C 384.05 298.12 391.28 295.01 398.54 290.36
  Q 400.09 289.37 402.22 288.59
  C 406.86 286.88 409.50 281.94 412.87 277.92
  Q 417.93 271.89 419.94 264.43
  C 421.74 257.71 425.70 237.56 421.80 231.47
  A 0.45 0.45 0.0 0 0 421.00 231.56
  C 417.80 240.77 415.21 252.38 404.72 256.66
  C 396.21 260.14 390.91 257.52 383.94 253.06
  C 378.00 249.26 373.95 251.62 368.13 254.07
  C 362.02 256.65 359.61 251.09 354.47 251.05
  C 348.33 250.99 343.26 254.85 337.94 257.43
  C 333.07 259.80 326.53 256.60 322.88 255.60
  Q 322.43 255.48 322.11 255.14
  C 315.41 248.00 312.18 244.09 310.35 234.19
  Q 310.00 232.32 308.13 231.35
  Q 307.61 231.08 307.53 231.66
  C 305.68 246.25 307.90 266.34 316.75 277.78
  A 1.51 1.50 -14.2 0 0 317.73 278.36
  Z
  M 351.87 333.22
  C 349.90 330.09 341.09 326.13 337.97 324.30
  Q 332.00 320.80 332.00 327.73
  L 332.00 353.74
  Q 332.00 354.23 332.46 354.37
  Q 338.00 356.09 341.98 352.80
  C 346.54 349.04 351.64 345.94 356.51 343.76
  Q 359.58 342.39 360.75 345.47
  A 0.84 0.81 78.7 0 0 361.53 346.01
  L 368.76 345.97
  Q 369.39 345.97 369.70 345.42
  Q 371.61 342.10 375.27 344.03
  Q 382.64 347.91 389.04 353.21
  Q 392.38 355.98 397.62 354.45
  Q 398.05 354.32 398.20 353.89
  Q 398.67 352.42 398.81 350.57
  Q 399.64 339.61 398.92 329.41
  C 398.67 325.94 397.73 322.02 393.22 323.94
  Q 386.82 326.67 378.89 333.29
  A 1.18 1.15 28.7 0 1 377.99 333.54
  Q 375.36 333.16 373.32 334.78
  Q 372.89 335.13 372.46 334.78
  Q 365.51 329.20 358.24 334.34
  A 0.90 0.88 -46.3 0 1 357.27 334.37
  Q 355.15 333.06 352.63 333.55
  A 0.73 0.72 -21.1 0 1 351.87 333.22
  Z
  M 1208.25 330.16
  A 2.91 2.91 0.0 0 0 1205.34 327.25
  L 452.40 327.25
  A 2.91 2.91 0.0 0 0 449.49 330.16
  L 449.49 330.60
  A 2.91 2.91 0.0 0 0 452.40 333.51
  L 1205.34 333.51
  A 2.91 2.91 0.0 0 0 1208.25 330.60
  L 1208.25 330.16
  Z
  M 284.48 335.14
  A 2.88 2.88 0.0 0 0 281.60 332.26
  L 76.14 332.26
  A 2.88 2.88 0.0 0 0 73.26 335.14
  L 73.26 335.62
  A 2.88 2.88 0.0 0 0 76.14 338.50
  L 281.60 338.50
  A 2.88 2.88 0.0 0 0 284.48 335.62
  L 284.48 335.14
  Z
  M 838.49 467.67
  Q 838.48 467.18 838.64 466.54
  Q 842.46 451.18 844.66 435.48
  C 846.34 423.52 830.96 420.80 827.74 432.74
  Q 826.19 438.50 825.43 444.39
  Q 825.37 444.90 824.99 445.25
  C 816.09 453.61 807.90 462.68 797.42 469.16
  C 789.56 474.03 775.91 479.09 772.36 466.99
  C 768.90 455.21 778.64 441.02 774.55 431.26
  C 772.53 426.46 770.52 422.96 765.34 421.68
  C 755.42 419.23 747.74 420.45 738.75 425.77
  Q 728.15 432.04 720.15 441.42
  C 709.30 454.14 694.23 469.31 679.72 476.96
  C 670.36 481.89 645.44 491.93 640.51 475.71
  Q 640.37 475.24 640.65 474.84
  Q 641.67 473.41 642.27 473.01
  C 653.88 465.25 668.90 453.35 674.70 440.43
  C 679.58 429.56 675.83 412.57 661.44 411.79
  C 645.78 410.93 634.12 426.85 628.27 439.16
  A 1.94 1.91 -4.0 0 1 627.60 439.92
  L 592.50 462.24
  A 0.32 0.31 -89.5 0 1 592.07 461.80
  C 599.65 450.21 595.19 435.57 584.66 427.71
  C 564.45 412.61 541.53 439.23 533.24 454.82
  A 0.29 0.29 0.0 0 1 532.69 454.66
  Q 535.59 420.90 543.66 388.66
  C 547.01 375.31 530.51 368.97 525.91 382.22
  C 522.21 392.93 521.32 402.01 519.26 417.02
  Q 514.25 453.45 513.75 490.25
  Q 513.73 492.06 513.87 493.89
  C 514.78 505.68 526.72 504.65 530.85 495.84
  Q 531.63 494.16 532.26 488.47
  C 533.83 474.31 543.98 461.72 553.21 451.46
  C 556.26 448.09 571.03 433.45 575.10 441.66
  C 584.64 460.88 568.68 474.90 554.44 484.43
  C 549.95 487.43 515.92 508.38 535.63 512.61
  C 552.80 516.29 563.17 496.11 575.81 488.58
  C 591.15 479.43 605.28 471.95 621.77 461.21
  Q 622.35 460.83 622.29 461.52
  C 620.61 481.04 624.70 498.78 647.49 501.10
  C 667.73 503.15 688.12 488.68 702.74 475.49
  Q 703.33 474.96 703.27 475.75
  C 703.06 478.42 702.66 481.29 702.80 483.59
  C 703.34 492.45 709.29 505.03 720.00 503.51
  C 736.14 501.23 749.52 489.13 759.05 476.67
  Q 759.36 476.26 759.54 476.74
  Q 765.20 492.11 779.24 491.76
  C 795.64 491.35 811.20 477.23 822.05 466.07
  A 0.44 0.44 0.0 0 1 822.80 466.42
  C 821.56 477.52 820.09 490.16 822.50 501.23
  C 824.71 511.44 838.42 509.41 840.26 500.53
  C 845.63 474.59 862.41 443.52 893.40 445.86
  C 896.04 446.05 897.45 445.37 898.74 443.22
  C 902.45 437.07 898.73 433.56 893.22 431.23
  C 868.13 420.67 847.51 448.71 839.03 467.77
  A 0.28 0.28 0.0 0 1 838.49 467.67
  Z
  M 920.69 396.06
  C 925.28 398.75 933.33 399.68 937.98 396.76
  C 943.14 393.50 947.26 380.72 939.82 377.65
  Q 930.53 373.81 923.76 380.97
  C 921.02 383.87 914.89 392.68 920.69 396.06
  Z
  M 271.71 432.63
  A 0.47 0.47 0.0 0 1 271.55 431.82
  C 278.46 426.16 287.18 417.84 289.29 409.62
  C 291.49 401.08 288.06 392.51 280.86 387.36
  C 263.56 374.99 235.50 386.83 217.62 392.74
  C 214.76 393.68 209.06 394.27 207.05 395.54
  C 196.51 402.22 200.96 414.73 200.06 424.31
  Q 197.48 451.73 193.68 479.00
  C 192.50 487.49 192.39 502.64 205.89 500.69
  C 213.90 499.54 215.69 492.02 215.55 485.00
  C 215.35 475.18 215.73 467.41 216.99 456.63
  Q 219.29 436.97 219.44 417.15
  C 219.53 404.66 275.21 392.48 271.49 407.85
  C 270.02 413.92 255.76 423.77 249.64 427.65
  C 245.82 430.08 241.75 428.84 238.19 429.70
  C 226.45 432.52 223.27 450.93 237.39 450.27
  C 240.14 450.15 242.87 448.79 245.55 447.75
  C 255.60 443.87 272.31 445.98 277.55 456.78
  C 282.80 467.61 268.70 482.97 260.77 488.54
  Q 256.81 491.33 250.45 492.43
  C 245.85 493.23 243.15 491.80 238.95 490.05
  C 230.84 486.67 217.88 490.71 220.46 501.78
  C 224.31 518.28 253.41 510.26 263.46 506.34
  C 280.35 499.75 298.36 478.57 298.14 459.74
  C 297.99 446.23 283.13 436.22 271.71 432.63
  Z
  M 444.39 466.45
  Q 442.18 471.36 443.44 466.13
  C 445.96 455.68 449.09 443.92 449.41 432.99
  C 449.56 428.25 444.93 424.57 440.52 424.98
  C 431.91 425.76 430.99 438.07 430.17 444.40
  A 1.47 1.44 72.6 0 1 429.73 445.26
  C 417.95 456.31 405.59 471.36 388.77 474.25
  C 377.27 476.22 374.80 463.40 376.74 455.07
  C 377.82 450.42 378.74 445.73 379.89 441.08
  C 381.39 435.04 379.66 430.72 376.23 425.55
  C 372.61 420.08 361.30 420.10 355.96 420.92
  Q 350.02 421.84 342.77 426.18
  C 325.94 436.28 314.41 453.42 308.91 472.17
  Q 305.51 483.74 309.80 493.17
  C 312.64 499.43 317.98 504.51 324.76 503.50
  C 340.68 501.13 354.34 489.36 363.72 476.64
  Q 364.06 476.17 364.26 476.72
  Q 369.87 491.89 383.63 491.77
  C 400.96 491.61 414.96 477.06 427.12 466.20
  Q 427.69 465.69 427.59 466.44
  Q 425.71 481.74 426.14 494.75
  C 426.31 500.14 428.01 508.00 434.98 507.95
  C 439.75 507.91 443.73 505.89 444.77 500.98
  C 450.01 476.28 466.66 443.65 496.91 445.83
  C 499.98 446.05 501.98 445.85 503.54 443.25
  C 507.22 437.13 503.48 433.57 498.00 431.24
  C 473.48 420.80 452.64 448.07 444.39 466.45
  Z
  M 974.97 480.39
  C 974.69 489.95 980.09 505.07 992.25 503.51
  C 1007.94 501.51 1022.01 489.04 1031.20 476.67
  Q 1031.53 476.23 1031.73 476.74
  C 1040.87 500.59 1064.20 491.60 1078.81 480.07
  C 1087.80 472.97 1105.45 459.16 1104.97 447.09
  C 1104.70 440.22 1097.60 444.70 1094.77 447.52
  C 1084.30 457.95 1070.98 472.54 1055.43 474.44
  C 1038.28 476.52 1045.03 449.88 1047.16 441.94
  C 1049.05 434.93 1046.27 423.84 1037.76 421.76
  C 1020.73 417.59 1007.53 425.78 995.98 437.48
  C 991.41 442.11 985.95 450.02 980.78 455.31
  C 974.96 461.25 939.07 496.54 931.29 483.93
  C 924.00 472.09 928.54 450.13 930.48 437.13
  C 931.26 431.89 931.08 424.71 923.59 426.35
  Q 912.02 428.89 909.86 440.46
  C 906.85 456.66 905.03 485.89 918.38 498.71
  C 936.79 516.40 961.86 493.00 974.63 480.24
  A 0.20 0.20 0.0 0 1 974.97 480.39
  Z"
/>
<path fill="#ffffff" d="
  M 310.37 131.95
  C 312.00 123.16 317.34 120.51 321.47 114.71
  Q 322.48 113.29 323.92 113.46
  Q 324.46 113.53 324.96 113.30
  Q 327.96 111.94 331.23 112.28
  Q 331.68 112.33 331.57 112.77
  C 330.64 116.25 327.99 122.32 328.91 125.74
  C 331.73 136.25 339.82 135.12 348.67 134.87
  C 354.87 134.70 361.46 131.39 367.25 129.25
  C 377.08 125.63 384.00 127.47 393.41 131.37
  C 397.79 133.19 402.74 135.49 405.95 139.11
  C 408.18 141.65 409.50 145.99 411.08 149.33
  A 0.83 0.82 -26.3 0 0 412.21 149.70
  C 421.17 145.04 431.80 143.31 439.46 151.29
  C 441.45 153.36 440.50 154.98 441.31 157.38
  C 444.00 165.33 440.79 170.60 440.65 178.46
  Q 440.64 178.96 440.36 179.38
  C 437.18 183.96 433.89 188.12 431.90 193.53
  Q 429.39 200.37 424.55 205.86
  A 0.41 0.40 56.9 0 1 423.86 205.71
  Q 421.41 198.08 420.16 190.32
  C 416.32 166.44 401.04 160.09 380.10 171.93
  C 375.83 174.34 371.66 177.01 366.99 178.42
  Q 356.78 181.52 345.31 183.58
  C 335.42 185.35 329.09 182.62 319.17 179.69
  Q 312.09 177.60 308.74 170.70
  Q 308.52 170.25 308.11 169.97
  Q 304.20 167.30 301.89 163.26
  C 300.25 160.38 300.74 157.41 300.75 154.14
  C 300.76 150.21 299.22 147.42 300.13 143.15
  C 300.87 139.66 300.74 137.28 300.75 134.05
  C 300.77 130.48 302.88 127.92 305.18 125.52
  A 2.53 2.52 -25.0 0 1 309.52 127.10
  L 309.83 131.92
  A 0.27 0.27 0.0 0 0 310.37 131.95
  Z"
/>
<path fill="#c3c3c4" d="
  M 210.25 162.77
  C 258.39 151.38 299.75 192.62 281.04 240.98
  C 269.70 270.29 236.57 281.96 207.47 273.59
  C 150.84 257.32 153.18 176.28 210.25 162.77
  Z
  M 239.78 173.23
  Q 235.43 169.80 233.24 169.36
  C 212.64 165.22 202.85 178.90 199.47 196.99
  C 196.16 214.78 195.39 247.00 208.91 261.31
  C 216.97 269.84 229.99 270.79 239.07 264.46
  C 256.96 251.98 255.52 214.17 252.18 196.26
  C 250.54 187.50 246.96 178.89 239.78 173.23
  Z"
/>
<path fill="#c3c3c4" d="
  M 570.75 234.26
  C 554.37 295.27 458.09 287.98 454.00 223.72
  C 452.57 201.34 461.89 181.04 480.59 169.74
  C 501.08 157.36 529.07 158.08 548.96 171.36
  C 569.39 185.00 577.13 210.49 570.75 234.26
  Z
  M 498.96 263.54
  C 508.43 271.69 522.82 269.31 530.31 261.23
  C 543.88 246.59 542.98 214.61 539.91 196.73
  C 537.75 184.16 529.85 169.42 515.46 168.64
  C 494.73 167.51 487.81 186.69 485.89 203.82
  C 483.88 221.74 483.82 250.51 498.96 263.54
  Z"
/>
<path fill="#c3c3c4" d="
  M 1211.45 231.43
  C 1197.84 294.03 1100.45 289.92 1094.22 225.79
  C 1091.28 195.54 1107.94 169.98 1137.98 162.69
  C 1181.17 152.21 1221.41 185.57 1211.45 231.43
  Z
  M 1138.98 263.51
  Q 1143.37 267.28 1146.75 267.86
  C 1172.50 272.27 1179.78 249.21 1181.24 229.01
  C 1182.60 210.30 1181.82 169.26 1154.35 168.51
  C 1123.36 167.67 1123.57 214.92 1125.87 233.82
  C 1127.16 244.49 1130.39 256.15 1138.98 263.51
  Z"
/>
<path fill="#c3c3c4" d="
  M 769.82 267.42
  Q 770.50 267.50 770.50 268.18
  L 770.50 272.75
  Q 770.50 273.50 769.75 273.50
  L 725.50 273.50
  Q 725.00 273.50 725.00 273.00
  L 725.00 267.77
  A 0.61 0.61 0.0 0 1 725.59 267.16
  Q 739.67 266.73 744.91 254.18
  Q 763.77 209.06 782.73 164.00
  A 0.80 0.80 0.0 0 1 783.47 163.50
  L 797.96 163.50
  Q 798.53 163.50 798.74 164.02
  Q 816.27 206.82 833.71 249.64
  C 838.09 260.42 841.65 266.78 853.51 267.26
  A 0.51 0.50 1.2 0 1 854.00 267.76
  L 854.00 272.75
  Q 854.00 273.50 853.25 273.50
  L 794.50 273.50
  Q 793.75 273.50 793.75 272.75
  L 793.75 268.15
  Q 793.75 267.75 794.14 267.67
  L 808.43 264.62
  A 0.95 0.94 -81.3 0 0 809.06 264.15
  Q 809.92 262.62 809.14 260.66
  Q 804.52 249.17 799.78 237.71
  Q 799.61 237.29 799.15 237.29
  L 762.23 237.23
  Q 761.65 237.23 761.42 237.77
  Q 756.09 250.40 754.27 258.05
  C 752.39 265.94 764.78 266.84 769.82 267.42
  Z
  M 764.96 229.23
  A 0.38 0.38 0.0 0 0 765.32 229.75
  L 795.66 229.75
  A 0.38 0.38 0.0 0 0 796.02 229.23
  L 780.84 191.50
  A 0.38 0.38 0.0 0 0 780.14 191.50
  L 764.96 229.23
  Z"
/>
<path fill="#c3c3c4" d="
  M 71.21 238.42
  C 83.02 224.21 107.95 241.87 92.89 257.17
  Q 88.21 261.92 85.88 264.25
  A 0.62 0.62 0.0 0 0 85.90 265.13
  Q 90.46 269.42 97.03 268.29
  C 109.27 266.19 113.77 255.19 113.74 243.95
  Q 113.65 213.23 114.03 182.50
  Q 114.07 179.86 113.32 176.02
  A 1.62 1.54 -75.2 0 0 112.86 175.18
  C 108.92 171.39 103.19 170.78 98.10 169.52
  Q 97.50 169.37 97.50 168.75
  L 97.50 164.00
  Q 97.50 163.50 98.00 163.50
  L 156.00 163.50
  Q 156.75 163.50 156.75 164.25
  L 156.75 168.94
  Q 156.75 169.47 156.23 169.55
  C 150.27 170.46 141.57 170.81 141.55 178.81
  Q 141.47 205.01 141.50 231.20
  Q 141.52 245.04 140.00 250.14
  C 133.50 271.88 107.46 279.62 87.24 274.51
  C 76.58 271.83 68.03 263.53 67.25 252.42
  Q 66.65 243.91 71.21 238.42
  Z"
/>
<path fill="#c3c3c4" d="
  M 683.42 267.54
  Q 683.49 267.55 683.49 267.63
  L 683.49 272.85
  Q 683.49 273.50 682.84 273.50
  L 624.16 273.50
  Q 623.57 273.50 623.55 272.91
  L 623.38 267.91
  A 0.55 0.55 0.0 0 1 623.88 267.35
  C 629.89 266.74 639.72 266.49 639.73 258.69
  Q 639.77 219.71 639.82 180.75
  C 639.84 171.33 630.78 171.14 623.96 169.57
  Q 623.50 169.46 623.50 168.98
  L 623.50 164.02
  Q 623.50 163.53 623.99 163.53
  Q 673.88 163.41 688.24 163.55
  C 707.73 163.73 728.52 170.22 726.64 193.98
  C 724.65 219.01 698.29 226.59 676.86 225.98
  C 673.64 225.88 670.87 226.12 667.87 226.30
  Q 667.36 226.33 667.35 226.85
  Q 666.97 242.43 667.52 257.95
  C 667.80 265.91 676.91 266.35 683.42 267.54
  Z
  M 667.54 171.02
  L 667.46 217.92
  A 0.23 0.23 0.0 0 0 667.69 218.16
  L 675.91 218.17
  A 20.29 20.08 0.1 0 0 696.23 198.13
  L 696.25 190.93
  A 20.29 20.08 0.1 0 0 675.99 170.81
  L 667.77 170.80
  A 0.23 0.23 0.0 0 0 667.54 171.02
  Z"
/>
<path fill="#c3c3c4" d="
  M 896.53 233.25
  C 896.57 249.56 901.16 263.99 919.93 265.89
  C 940.20 267.93 952.90 256.48 953.22 235.93
  Q 953.54 215.09 953.51 194.25
  C 953.51 187.58 952.90 177.81 946.73 173.90
  C 943.71 171.99 938.31 170.95 934.30 169.69
  Q 933.86 169.55 933.86 169.10
  L 933.78 164.12
  A 0.61 0.60 89.5 0 1 934.38 163.50
  L 980.04 163.50
  Q 980.82 163.50 980.80 164.29
  L 980.64 168.92
  Q 980.62 169.58 980.02 169.86
  Q 978.14 170.72 975.27 171.01
  C 964.39 172.10 963.07 181.80 963.03 191.19
  Q 962.96 211.97 963.02 232.75
  C 963.12 269.60 932.74 280.93 901.18 274.31
  C 883.15 270.53 868.97 257.59 868.84 238.31
  Q 868.58 196.21 868.77 181.74
  C 868.90 171.74 861.28 170.94 854.31 169.45
  Q 853.75 169.33 853.75 168.76
  L 853.75 164.25
  A 0.75 0.75 0.0 0 1 854.50 163.50
  L 911.00 163.50
  A 0.75 0.75 0.0 0 1 911.75 164.25
  L 911.75 169.05
  Q 911.75 169.53 911.27 169.58
  Q 907.80 169.87 902.42 171.44
  C 896.95 173.04 896.55 176.16 896.53 181.64
  Q 896.46 207.44 896.53 233.25
  Z"
/>
<path fill="#c3c3c4" d="
  M 1039.31 265.95
  Q 1048.55 266.30 1057.80 265.50
  C 1064.11 264.95 1067.73 263.13 1071.34 258.35
  C 1075.61 252.71 1079.50 245.53 1082.35 239.06
  Q 1082.59 238.50 1083.20 238.50
  L 1087.67 238.50
  Q 1088.34 238.50 1088.30 239.17
  L 1086.25 273.01
  Q 1086.22 273.50 1085.73 273.50
  L 985.38 273.50
  Q 984.75 273.50 984.75 272.87
  L 984.75 267.94
  Q 984.75 267.32 985.37 267.27
  C 993.21 266.63 1000.97 266.58 1000.98 256.75
  Q 1001.03 218.25 1000.98 179.75
  C 1000.97 172.02 990.93 170.33 984.98 169.75
  A 0.38 0.37 -86.8 0 1 984.64 169.36
  L 984.73 164.13
  Q 984.74 163.50 985.37 163.50
  L 1044.87 163.50
  Q 1045.50 163.50 1045.50 164.13
  L 1045.50 168.98
  Q 1045.50 169.61 1044.88 169.65
  Q 1039.45 170.06 1034.19 171.33
  C 1029.16 172.54 1028.86 176.58 1028.80 181.07
  Q 1028.33 216.29 1028.74 251.52
  C 1028.84 259.89 1029.85 265.59 1039.31 265.95
  Z"
/>
<path fill="#000000" d="
  M 239.78 173.23
  C 246.96 178.89 250.54 187.50 252.18 196.26
  C 255.52 214.17 256.96 251.98 239.07 264.46
  C 229.99 270.79 216.97 269.84 208.91 261.31
  C 195.39 247.00 196.16 214.78 199.47 196.99
  C 202.85 178.90 212.64 165.22 233.24 169.36
  Q 235.43 169.80 239.78 173.23
  Z"
/>
<path fill="#000000" d="
  M 498.96 263.54
  C 483.82 250.51 483.88 221.74 485.89 203.82
  C 487.81 186.69 494.73 167.51 515.46 168.64
  C 529.85 169.42 537.75 184.16 539.91 196.73
  C 542.98 214.61 543.88 246.59 530.31 261.23
  C 522.82 269.31 508.43 271.69 498.96 263.54
  Z"
/>
<path fill="#000000" d="
  M 1138.98 263.51
  C 1130.39 256.15 1127.16 244.49 1125.87 233.82
  C 1123.57 214.92 1123.36 167.67 1154.35 168.51
  C 1181.82 169.26 1182.60 210.30 1181.24 229.01
  C 1179.78 249.21 1172.50 272.27 1146.75 267.86
  Q 1143.37 267.28 1138.98 263.51
  Z"
/>
<path fill="#000000" d="
  M 667.54 171.02
  A 0.23 0.23 0.0 0 1 667.77 170.80
  L 675.99 170.81
  A 20.29 20.08 0.1 0 1 696.25 190.93
  L 696.23 198.13
  A 20.29 20.08 0.1 0 1 675.91 218.17
  L 667.69 218.16
  A 0.23 0.23 0.0 0 1 667.46 217.92
  L 667.54 171.02
  Z"
/>
<path fill="#000000" d="
  M 764.96 229.23
  L 780.14 191.50
  A 0.38 0.38 0.0 0 1 780.84 191.50
  L 796.02 229.23
  A 0.38 0.38 0.0 0 1 795.66 229.75
  L 765.32 229.75
  A 0.38 0.38 0.0 0 1 764.96 229.23
  Z"
/>
<path fill="#ffffff" d="
  M 316.75 277.78
  C 307.90 266.34 305.68 246.25 307.53 231.66
  Q 307.61 231.08 308.13 231.35
  Q 310.00 232.32 310.35 234.19
  C 312.18 244.09 315.41 248.00 322.11 255.14
  Q 322.43 255.48 322.88 255.60
  C 326.53 256.60 333.07 259.80 337.94 257.43
  C 343.26 254.85 348.33 250.99 354.47 251.05
  C 359.61 251.09 362.02 256.65 368.13 254.07
  C 373.95 251.62 378.00 249.26 383.94 253.06
  C 390.91 257.52 396.21 260.14 404.72 256.66
  C 415.21 252.38 417.80 240.77 421.00 231.56
  A 0.45 0.45 0.0 0 1 421.80 231.47
  C 425.70 237.56 421.74 257.71 419.94 264.43
  Q 417.93 271.89 412.87 277.92
  C 409.50 281.94 406.86 286.88 402.22 288.59
  Q 400.09 289.37 398.54 290.36
  C 391.28 295.01 384.05 298.12 375.14 298.57
  Q 364.88 299.08 354.62 298.47
  C 346.37 297.98 339.80 295.32 332.90 291.34
  Q 332.38 291.04 332.14 290.49
  Q 331.11 288.20 328.32 288.58
  A 0.91 0.89 -27.7 0 1 327.59 288.36
  L 321.15 282.68
  A 1.13 1.13 0.0 0 1 320.76 281.87
  Q 320.59 278.78 317.73 278.36
  A 1.51 1.50 -14.2 0 1 316.75 277.78
  Z
  M 343.19 267.31
  Q 348.14 271.60 354.21 270.55
  Q 365.13 268.65 375.97 270.58
  C 386.33 272.42 397.24 258.53 380.37 258.51
  Q 363.97 258.48 347.56 258.53
  C 342.58 258.54 337.98 262.80 343.19 267.31
  Z"
/>
<path fill="#000000" d="
  M 343.19 267.31
  C 337.98 262.80 342.58 258.54 347.56 258.53
  Q 363.97 258.48 380.37 258.51
  C 397.24 258.53 386.33 272.42 375.97 270.58
  Q 365.13 268.65 354.21 270.55
  Q 348.14 271.60 343.19 267.31
  Z"
/>
<path fill="#ffffff" d="
  M 352.63 333.55
  Q 355.15 333.06 357.27 334.37
  A 0.90 0.88 -46.3 0 0 358.24 334.34
  Q 365.51 329.20 372.46 334.78
  Q 372.89 335.13 373.32 334.78
  Q 375.36 333.16 377.99 333.54
  A 1.18 1.15 28.7 0 0 378.89 333.29
  Q 386.82 326.67 393.22 323.94
  C 397.73 322.02 398.67 325.94 398.92 329.41
  Q 399.64 339.61 398.81 350.57
  Q 398.67 352.42 398.20 353.89
  Q 398.05 354.32 397.62 354.45
  Q 392.38 355.98 389.04 353.21
  Q 382.64 347.91 375.27 344.03
  Q 371.61 342.10 369.70 345.42
  Q 369.39 345.97 368.76 345.97
  L 361.53 346.01
  A 0.84 0.81 78.7 0 1 360.75 345.47
  Q 359.58 342.39 356.51 343.76
  C 351.64 345.94 346.54 349.04 341.98 352.80
  Q 338.00 356.09 332.46 354.37
  Q 332.00 354.23 332.00 353.74
  L 332.00 327.73
  Q 332.00 320.80 337.97 324.30
  C 341.09 326.13 349.90 330.09 351.87 333.22
  A 0.73 0.72 -21.1 0 0 352.63 333.55
  Z"
/>
<rect fill="#ae7f6c" x="449.49" y="327.25" width="758.76" height="6.26" rx="2.91"/>
<rect fill="#ae7f6c" x="73.26" y="332.26" width="211.22" height="6.24" rx="2.88"/>
<path fill="#b77b58" d="
  M 838.49 467.67
  A 0.28 0.28 0.0 0 0 839.03 467.77
  C 847.51 448.71 868.13 420.67 893.22 431.23
  C 898.73 433.56 902.45 437.07 898.74 443.22
  C 897.45 445.37 896.04 446.05 893.40 445.86
  C 862.41 443.52 845.63 474.59 840.26 500.53
  C 838.42 509.41 824.71 511.44 822.50 501.23
  C 820.09 490.16 821.56 477.52 822.80 466.42
  A 0.44 0.44 0.0 0 0 822.05 466.07
  C 811.20 477.23 795.64 491.35 779.24 491.76
  Q 765.20 492.11 759.54 476.74
  Q 759.36 476.26 759.05 476.67
  C 749.52 489.13 736.14 501.23 720.00 503.51
  C 709.29 505.03 703.34 492.45 702.80 483.59
  C 702.66 481.29 703.06 478.42 703.27 475.75
  Q 703.33 474.96 702.74 475.49
  C 688.12 488.68 667.73 503.15 647.49 501.10
  C 624.70 498.78 620.61 481.04 622.29 461.52
  Q 622.35 460.83 621.77 461.21
  C 605.28 471.95 591.15 479.43 575.81 488.58
  C 563.17 496.11 552.80 516.29 535.63 512.61
  C 515.92 508.38 549.95 487.43 554.44 484.43
  C 568.68 474.90 584.64 460.88 575.10 441.66
  C 571.03 433.45 556.26 448.09 553.21 451.46
  C 543.98 461.72 533.83 474.31 532.26 488.47
  Q 531.63 494.16 530.85 495.84
  C 526.72 504.65 514.78 505.68 513.87 493.89
  Q 513.73 492.06 513.75 490.25
  Q 514.25 453.45 519.26 417.02
  C 521.32 402.01 522.21 392.93 525.91 382.22
  C 530.51 368.97 547.01 375.31 543.66 388.66
  Q 535.59 420.90 532.69 454.66
  A 0.29 0.29 0.0 0 0 533.24 454.82
  C 541.53 439.23 564.45 412.61 584.66 427.71
  C 595.19 435.57 599.65 450.21 592.07 461.80
  A 0.32 0.31 -89.5 0 0 592.50 462.24
  L 627.60 439.92
  A 1.94 1.91 -4.0 0 0 628.27 439.16
  C 634.12 426.85 645.78 410.93 661.44 411.79
  C 675.83 412.57 679.58 429.56 674.70 440.43
  C 668.90 453.35 653.88 465.25 642.27 473.01
  Q 641.67 473.41 640.65 474.84
  Q 640.37 475.24 640.51 475.71
  C 645.44 491.93 670.36 481.89 679.72 476.96
  C 694.23 469.31 709.30 454.14 720.15 441.42
  Q 728.15 432.04 738.75 425.77
  C 747.74 420.45 755.42 419.23 765.34 421.68
  C 770.52 422.96 772.53 426.46 774.55 431.26
  C 778.64 441.02 768.90 455.21 772.36 466.99
  C 775.91 479.09 789.56 474.03 797.42 469.16
  C 807.90 462.68 816.09 453.61 824.99 445.25
  Q 825.37 444.90 825.43 444.39
  Q 826.19 438.50 827.74 432.74
  C 830.96 420.80 846.34 423.52 844.66 435.48
  Q 842.46 451.18 838.64 466.54
  Q 838.48 467.18 838.49 467.67
  Z
  M 658.95 427.19
  C 655.09 426.73 649.30 433.65 647.57 436.58
  Q 641.36 447.08 639.66 459.22
  Q 639.59 459.68 639.99 459.43
  C 650.03 453.04 662.77 441.90 660.68 428.85
  Q 660.44 427.37 658.95 427.19
  Z
  M 721.89 487.17
  C 724.41 487.31 726.83 486.92 729.17 485.61
  C 744.79 476.92 757.51 459.74 758.77 442.00
  Q 759.04 438.15 756.60 435.42
  A 1.28 1.28 0.0 0 0 755.71 435.01
  C 738.44 434.63 716.82 470.29 719.92 485.47
  A 2.13 2.13 0.0 0 0 721.89 487.17
  Z"
/>
<path fill="#b77b58" d="
  M 920.69 396.06
  C 914.89 392.68 921.02 383.87 923.76 380.97
  Q 930.53 373.81 939.82 377.65
  C 947.26 380.72 943.14 393.50 937.98 396.76
  C 933.33 399.68 925.28 398.75 920.69 396.06
  Z"
/>
<path fill="#b77b58" d="
  M 271.71 432.63
  C 283.13 436.22 297.99 446.23 298.14 459.74
  C 298.36 478.57 280.35 499.75 263.46 506.34
  C 253.41 510.26 224.31 518.28 220.46 501.78
  C 217.88 490.71 230.84 486.67 238.95 490.05
  C 243.15 491.80 245.85 493.23 250.45 492.43
  Q 256.81 491.33 260.77 488.54
  C 268.70 482.97 282.80 467.61 277.55 456.78
  C 272.31 445.98 255.60 443.87 245.55 447.75
  C 242.87 448.79 240.14 450.15 237.39 450.27
  C 223.27 450.93 226.45 432.52 238.19 429.70
  C 241.75 428.84 245.82 430.08 249.64 427.65
  C 255.76 423.77 270.02 413.92 271.49 407.85
  C 275.21 392.48 219.53 404.66 219.44 417.15
  Q 219.29 436.97 216.99 456.63
  C 215.73 467.41 215.35 475.18 215.55 485.00
  C 215.69 492.02 213.90 499.54 205.89 500.69
  C 192.39 502.64 192.50 487.49 193.68 479.00
  Q 197.48 451.73 200.06 424.31
  C 200.96 414.73 196.51 402.22 207.05 395.54
  C 209.06 394.27 214.76 393.68 217.62 392.74
  C 235.50 386.83 263.56 374.99 280.86 387.36
  C 288.06 392.51 291.49 401.08 289.29 409.62
  C 287.18 417.84 278.46 426.16 271.55 431.82
  A 0.47 0.47 0.0 0 0 271.71 432.63
  Z"
/>
<path fill="#b77b58" d="
  M 444.39 466.45
  C 452.64 448.07 473.48 420.80 498.00 431.24
  C 503.48 433.57 507.22 437.13 503.54 443.25
  C 501.98 445.85 499.98 446.05 496.91 445.83
  C 466.66 443.65 450.01 476.28 444.77 500.98
  C 443.73 505.89 439.75 507.91 434.98 507.95
  C 428.01 508.00 426.31 500.14 426.14 494.75
  Q 425.71 481.74 427.59 466.44
  Q 427.69 465.69 427.12 466.20
  C 414.96 477.06 400.96 491.61 383.63 491.77
  Q 369.87 491.89 364.26 476.72
  Q 364.06 476.17 363.72 476.64
  C 354.34 489.36 340.68 501.13 324.76 503.50
  C 317.98 504.51 312.64 499.43 309.80 493.17
  Q 305.51 483.74 308.91 472.17
  C 314.41 453.42 325.94 436.28 342.77 426.18
  Q 350.02 421.84 355.96 420.92
  C 361.30 420.10 372.61 420.08 376.23 425.55
  C 379.66 430.72 381.39 435.04 379.89 441.08
  C 378.74 445.73 377.82 450.42 376.74 455.07
  C 374.80 463.40 377.27 476.22 388.77 474.25
  C 405.59 471.36 417.95 456.31 429.73 445.26
  A 1.47 1.44 72.6 0 0 430.17 444.40
  C 430.99 438.07 431.91 425.76 440.52 424.98
  C 444.93 424.57 449.56 428.25 449.41 432.99
  C 449.09 443.92 445.96 455.68 443.44 466.13
  Q 442.18 471.36 444.39 466.45
  Z
  M 326.92 487.34
  C 338.71 486.77 351.63 472.32 357.14 462.10
  C 360.48 455.90 367.10 441.17 361.21 435.32
  Q 360.87 434.99 360.40 435.01
  C 344.58 435.83 331.19 457.62 326.58 471.37
  C 324.75 476.83 323.59 480.64 324.76 485.71
  A 2.11 2.11 0.0 0 0 326.92 487.34
  Z"
/>
<path fill="#b77b58" d="
  M 974.97 480.39
  A 0.20 0.20 0.0 0 0 974.63 480.24
  C 961.86 493.00 936.79 516.40 918.38 498.71
  C 905.03 485.89 906.85 456.66 909.86 440.46
  Q 912.02 428.89 923.59 426.35
  C 931.08 424.71 931.26 431.89 930.48 437.13
  C 928.54 450.13 924.00 472.09 931.29 483.93
  C 939.07 496.54 974.96 461.25 980.78 455.31
  C 985.95 450.02 991.41 442.11 995.98 437.48
  C 1007.53 425.78 1020.73 417.59 1037.76 421.76
  C 1046.27 423.84 1049.05 434.93 1047.16 441.94
  C 1045.03 449.88 1038.28 476.52 1055.43 474.44
  C 1070.98 472.54 1084.30 457.95 1094.77 447.52
  C 1097.60 444.70 1104.70 440.22 1104.97 447.09
  C 1105.45 459.16 1087.80 472.97 1078.81 480.07
  C 1064.20 491.60 1040.87 500.59 1031.73 476.74
  Q 1031.53 476.23 1031.20 476.67
  C 1022.01 489.04 1007.94 501.51 992.25 503.51
  C 980.09 505.07 974.69 489.95 974.97 480.39
  Z
  M 992.42 485.66
  C 993.90 488.11 998.32 487.33 1000.28 486.28
  Q 1022.70 474.19 1029.97 448.99
  C 1031.06 445.19 1032.16 438.96 1028.82 435.42
  A 1.25 1.24 68.6 0 0 1027.94 435.03
  C 1012.46 434.89 999.03 458.07 994.17 470.72
  C 992.99 473.80 990.48 482.46 992.42 485.66
  Z"
/>
<path fill="#000000" d="
  M 658.95 427.19
  Q 660.44 427.37 660.68 428.85
  C 662.77 441.90 650.03 453.04 639.99 459.43
  Q 639.59 459.68 639.66 459.22
  Q 641.36 447.08 647.57 436.58
  C 649.30 433.65 655.09 426.73 658.95 427.19
  Z"
/>
<path fill="#000000" d="
  M 326.92 487.34
  A 2.11 2.11 0.0 0 1 324.76 485.71
  C 323.59 480.64 324.75 476.83 326.58 471.37
  C 331.19 457.62 344.58 435.83 360.40 435.01
  Q 360.87 434.99 361.21 435.32
  C 367.10 441.17 360.48 455.90 357.14 462.10
  C 351.63 472.32 338.71 486.77 326.92 487.34
  Z"
/>
<path fill="#000000" d="
  M 721.89 487.17
  A 2.13 2.13 0.0 0 1 719.92 485.47
  C 716.82 470.29 738.44 434.63 755.71 435.01
  A 1.28 1.28 0.0 0 1 756.60 435.42
  Q 759.04 438.15 758.77 442.00
  C 757.51 459.74 744.79 476.92 729.17 485.61
  C 726.83 486.92 724.41 487.31 721.89 487.17
  Z"
/>
<path fill="#000000" d="
  M 992.42 485.66
  C 990.48 482.46 992.99 473.80 994.17 470.72
  C 999.03 458.07 1012.46 434.89 1027.94 435.03
  A 1.25 1.24 68.6 0 1 1028.82 435.42
  C 1032.16 438.96 1031.06 445.19 1029.97 448.99
  Q 1022.70 474.19 1000.28 486.28
  C 998.32 487.33 993.90 488.11 992.42 485.66
  Z"
/>
<path fill="#ffffff" d="
  M 1282.00 651.00
  L 1282.00 652.00
  L 0.00 652.00
  L 0.00 651.00
  L 1282.00 651.00
  Z"
/>
</svg>
